<svg width="670" height="529" viewBox="0 0 670 529" fill="none" xmlns="http://www.w3.org/2000/svg">
<path d="M84.5387 111.236H82.7207V208.501H84.5387V111.236Z" fill="#565463" fill-opacity="0.35"/>
<path d="M84.5387 237.453H82.7207V323.037H84.5387V237.453Z" fill="#565463" fill-opacity="0.35"/>
<path d="M201.802 333.036H88.175V334.854H201.802V333.036Z" fill="#565463" fill-opacity="0.35"/>
<path d="M18.1803 356.671H16.3623V433.937H18.1803V356.671Z" fill="#565463" fill-opacity="0.35"/>
<path d="M230.891 448.481H32.7251V450.299H230.891V448.481Z" fill="#565463" fill-opacity="0.35"/>
<path d="M393.605 152.142H259.948V153.96H393.605V152.142Z" fill="#565463" fill-opacity="0.35"/>
<path d="M246.344 166.686H244.526V289.403H246.344V166.686Z" fill="#565463" fill-opacity="0.35"/>
<path d="M83.6298 238.498C80.5735 238.498 77.5857 237.592 75.0444 235.894C72.5032 234.196 70.5225 231.782 69.3528 228.959C68.1832 226.135 67.8772 223.028 68.4734 220.03C69.0697 217.033 70.5415 214.279 72.7027 212.118C74.8639 209.957 77.6174 208.485 80.615 207.889C83.6127 207.292 86.7198 207.598 89.5436 208.768C92.3673 209.938 94.7808 211.918 96.4788 214.46C98.1768 217.001 99.0831 219.989 99.0831 223.045C99.0786 227.142 97.449 231.07 94.5519 233.967C91.6549 236.864 87.7269 238.494 83.6298 238.498ZM83.6298 209.41C80.933 209.41 78.2968 210.209 76.0545 211.708C73.8122 213.206 72.0645 215.335 71.0325 217.827C70.0005 220.319 69.7304 223.06 70.2566 225.705C70.7827 228.35 72.0813 230.78 73.9882 232.687C75.8952 234.594 78.3247 235.892 80.9697 236.418C83.6147 236.944 86.3563 236.674 88.8478 235.642C91.3393 234.61 93.4689 232.863 94.9671 230.62C96.4654 228.378 97.2651 225.742 97.2651 223.045C97.2611 219.43 95.8232 215.964 93.267 213.408C90.7107 210.852 87.2449 209.414 83.6298 209.41Z" fill="#565463" fill-opacity="0.35"/>
<path d="M18.1804 463.935C15.124 463.935 12.1363 463.028 9.59497 461.33C7.05369 459.632 5.073 457.219 3.90338 454.395C2.73375 451.571 2.42772 448.464 3.02399 445.467C3.62026 442.469 5.09206 439.715 7.25324 437.554C9.41443 435.393 12.1679 433.921 15.1656 433.325C18.1632 432.729 21.2704 433.035 24.0941 434.204C26.9178 435.374 29.3313 437.355 31.0293 439.896C32.7274 442.437 33.6337 445.425 33.6337 448.481C33.6291 452.578 31.9995 456.506 29.1025 459.403C26.2054 462.301 22.2774 463.93 18.1804 463.935ZM18.1804 434.846C15.4836 434.846 12.8473 435.646 10.605 437.144C8.36272 438.642 6.61503 440.772 5.58301 443.263C4.55099 445.755 4.28098 448.497 4.8071 451.142C5.33322 453.787 6.63184 456.216 8.53876 458.123C10.4457 460.03 12.8753 461.329 15.5203 461.855C18.1652 462.381 20.9068 462.111 23.3983 461.079C25.8899 460.047 28.0194 458.299 29.5177 456.057C31.0159 453.814 31.8156 451.178 31.8156 448.481C31.8116 444.866 30.3738 441.4 27.8175 438.844C25.2613 436.288 21.7954 434.85 18.1804 434.846Z" fill="#565463" fill-opacity="0.35"/>
<path d="M83.6295 348.489C91.6621 348.489 98.1738 341.978 98.1738 333.945C98.1738 325.913 91.6621 319.401 83.6295 319.401C75.5969 319.401 69.0852 325.913 69.0852 333.945C69.0852 341.978 75.5969 348.489 83.6295 348.489Z" fill="#CD9F44"/>
<path d="M591.771 218.5H440.874V220.318H591.771V218.5Z" fill="#565463" fill-opacity="0.35"/>
<path d="M427.238 233.817H425.42V319.401H427.238V233.817Z" fill="#565463" fill-opacity="0.35"/>
<path d="M410.876 333.036H289.977V334.854H410.876V333.036Z" fill="#565463" fill-opacity="0.35"/>
<path d="M628.131 341.217H502.687V343.035H628.131V341.217Z" fill="#565463" fill-opacity="0.35"/>
<path d="M489.961 357.58H488.143V434.846H489.961V357.58Z" fill="#565463" fill-opacity="0.35"/>
<path d="M473.598 448.481H259.979V450.299H473.598V448.481Z" fill="#565463" fill-opacity="0.35"/>
<path d="M246.344 378.487H244.526V434.846H246.344V378.487Z" fill="#565463" fill-opacity="0.35"/>
<path d="M408.149 166.686C416.182 166.686 422.693 160.174 422.693 152.142C422.693 144.109 416.182 137.597 408.149 137.597C400.116 137.597 393.605 144.109 393.605 152.142C393.605 160.174 400.116 166.686 408.149 166.686Z" fill="#CD9F44"/>
<path d="M426.329 234.862C423.273 234.862 420.285 233.956 417.744 232.258C415.203 230.56 413.222 228.147 412.052 225.323C410.883 222.499 410.577 219.392 411.173 216.394C411.769 213.397 413.241 210.643 415.402 208.482C417.563 206.321 420.317 204.849 423.314 204.253C426.312 203.656 429.419 203.962 432.243 205.132C435.067 206.302 437.48 208.282 439.178 210.824C440.876 213.365 441.783 216.353 441.783 219.409C441.778 223.506 440.148 227.434 437.251 230.331C434.354 233.228 430.426 234.858 426.329 234.862ZM426.329 205.774C423.632 205.774 420.996 206.573 418.754 208.072C416.512 209.57 414.764 211.7 413.732 214.191C412.7 216.683 412.43 219.424 412.956 222.069C413.482 224.714 414.781 227.144 416.688 229.051C418.595 230.958 421.024 232.256 423.669 232.782C426.314 233.308 429.056 233.038 431.547 232.006C434.039 230.974 436.168 229.227 437.667 226.984C439.165 224.742 439.965 222.106 439.965 219.409C439.961 215.794 438.523 212.328 435.966 209.772C433.41 207.216 429.944 205.778 426.329 205.774Z" fill="#565463" fill-opacity="0.35"/>
<path d="M245.435 167.595C242.379 167.595 239.391 166.689 236.85 164.991C234.308 163.293 232.328 160.879 231.158 158.055C229.988 155.232 229.682 152.124 230.279 149.127C230.875 146.129 232.347 143.376 234.508 141.214C236.669 139.053 239.423 137.581 242.42 136.985C245.418 136.389 248.525 136.695 251.349 137.865C254.172 139.034 256.586 141.015 258.284 143.556C259.982 146.097 260.888 149.085 260.888 152.142C260.884 156.239 259.254 160.167 256.357 163.064C253.46 165.961 249.532 167.59 245.435 167.595ZM245.435 138.506C242.738 138.506 240.102 139.306 237.86 140.804C235.617 142.303 233.87 144.432 232.838 146.924C231.806 149.415 231.536 152.157 232.062 154.802C232.588 157.447 233.887 159.876 235.793 161.783C237.7 163.69 240.13 164.989 242.775 165.515C245.42 166.041 248.162 165.771 250.653 164.739C253.145 163.707 255.274 161.959 256.772 159.717C258.271 157.475 259.07 154.838 259.07 152.142C259.066 148.527 257.628 145.061 255.072 142.504C252.516 139.948 249.05 138.51 245.435 138.506Z" fill="#565463" fill-opacity="0.35"/>
<path d="M488.143 358.489C485.086 358.489 482.098 357.582 479.557 355.884C477.016 354.186 475.035 351.773 473.866 348.949C472.696 346.125 472.39 343.018 472.986 340.021C473.582 337.023 475.054 334.269 477.215 332.108C479.377 329.947 482.13 328.475 485.128 327.879C488.125 327.283 491.233 327.589 494.056 328.758C496.88 329.928 499.293 331.909 500.991 334.45C502.69 336.991 503.596 339.979 503.596 343.035C503.591 347.132 501.962 351.06 499.065 353.958C496.168 356.855 492.24 358.484 488.143 358.489ZM488.143 329.4C485.446 329.4 482.809 330.2 480.567 331.698C478.325 333.196 476.577 335.326 475.545 337.817C474.513 340.309 474.243 343.051 474.769 345.696C475.295 348.34 476.594 350.77 478.501 352.677C480.408 354.584 482.837 355.883 485.482 356.409C488.127 356.935 490.869 356.665 493.361 355.633C495.852 354.601 497.982 352.853 499.48 350.611C500.978 348.368 501.778 345.732 501.778 343.035C501.774 339.42 500.336 335.955 497.78 333.398C495.223 330.842 491.758 329.404 488.143 329.4Z" fill="#565463" fill-opacity="0.35"/>
<path d="M488.142 463.935C496.175 463.935 502.687 457.423 502.687 449.391C502.687 441.358 496.175 434.846 488.142 434.846C480.11 434.846 473.598 441.358 473.598 449.391C473.598 457.423 480.11 463.935 488.142 463.935Z" fill="#CD9F44"/>
<path d="M245.435 464.844C242.379 464.844 239.391 463.937 236.85 462.239C234.308 460.541 232.328 458.128 231.158 455.304C229.988 452.48 229.682 449.373 230.279 446.376C230.875 443.378 232.347 440.625 234.508 438.463C236.669 436.302 239.423 434.83 242.42 434.234C245.418 433.638 248.525 433.944 251.349 435.113C254.172 436.283 256.586 438.264 258.284 440.805C259.982 443.346 260.888 446.334 260.888 449.39C260.884 453.488 259.254 457.415 256.357 460.313C253.46 463.21 249.532 464.839 245.435 464.844ZM245.435 435.755C242.738 435.755 240.102 436.555 237.86 438.053C235.617 439.551 233.87 441.681 232.838 444.172C231.806 446.664 231.536 449.406 232.062 452.051C232.588 454.696 233.887 457.125 235.793 459.032C237.7 460.939 240.13 462.238 242.775 462.764C245.42 463.29 248.162 463.02 250.653 461.988C253.145 460.956 255.274 459.208 256.772 456.966C258.271 454.724 259.07 452.087 259.07 449.39C259.066 445.775 257.628 442.31 255.072 439.753C252.516 437.197 249.05 435.759 245.435 435.755Z" fill="#565463" fill-opacity="0.35"/>
<path d="M425.421 349.398C422.364 349.398 419.376 348.492 416.835 346.794C414.294 345.096 412.313 342.683 411.144 339.859C409.974 337.035 409.668 333.928 410.264 330.93C410.86 327.933 412.332 325.179 414.493 323.018C416.655 320.857 419.408 319.385 422.406 318.789C425.403 318.192 428.511 318.499 431.334 319.668C434.158 320.838 436.572 322.818 438.27 325.36C439.968 327.901 440.874 330.889 440.874 333.945C440.869 338.042 439.24 341.97 436.343 344.867C433.446 347.764 429.518 349.394 425.421 349.398ZM425.421 320.31C422.724 320.31 420.088 321.11 417.845 322.608C415.603 324.106 413.855 326.236 412.823 328.727C411.791 331.219 411.521 333.96 412.047 336.605C412.573 339.25 413.872 341.68 415.779 343.587C417.686 345.494 420.116 346.792 422.76 347.318C425.405 347.845 428.147 347.575 430.639 346.542C433.13 345.51 435.26 343.763 436.758 341.52C438.256 339.278 439.056 336.642 439.056 333.945C439.052 330.33 437.614 326.864 435.058 324.308C432.502 321.752 429.036 320.314 425.421 320.31Z" fill="#565463" fill-opacity="0.35"/>
<path d="M18.1804 311.22C14.5846 311.22 11.0697 312.286 8.07991 314.284C5.09016 316.281 2.75992 319.121 1.38389 322.443C0.00786176 325.765 -0.352149 329.42 0.349344 332.947C1.05084 336.474 2.78235 339.713 5.32492 342.256C7.86749 344.798 11.1069 346.53 14.6336 347.231C18.1602 347.933 21.8156 347.573 25.1377 346.197C28.4597 344.821 31.2991 342.49 33.2968 339.501C35.2945 336.511 36.3607 332.996 36.3607 329.4C36.3466 324.583 34.4267 319.967 31.0202 316.56C27.6138 313.154 22.9978 311.234 18.1804 311.22ZM18.1804 316.674C19.2591 316.674 20.3136 316.994 21.2105 317.593C22.1074 318.192 22.8065 319.044 23.2193 320.041C23.6321 321.037 23.7401 322.134 23.5297 323.192C23.3192 324.25 22.7998 325.222 22.037 325.985C21.2742 326.747 20.3024 327.267 19.2444 327.477C18.1864 327.688 17.0898 327.58 16.0932 327.167C15.0965 326.754 14.2447 326.055 13.6454 325.158C13.0461 324.261 12.7263 323.207 12.7263 322.128C12.7311 320.683 13.3072 319.298 14.329 318.277C15.3508 317.255 16.7353 316.679 18.1804 316.674ZM18.1804 342.931C16.0258 342.921 13.9061 342.385 12.0053 341.371C10.1044 340.357 8.47972 338.894 7.27214 337.109C7.35956 333.473 14.5443 331.472 18.1804 331.472C21.8164 331.472 29.0012 333.473 29.0886 337.109C27.8796 338.892 26.2547 340.354 24.3541 341.368C22.4535 342.383 20.3346 342.919 18.1804 342.931Z" fill="#565463" fill-opacity="0.35"/>
<path d="M84.5388 67.603C80.943 67.603 77.4281 68.6693 74.4383 70.667C71.4486 72.6647 69.1183 75.504 67.7423 78.8261C66.3663 82.1481 66.0062 85.8036 66.7077 89.3302C67.4092 92.8568 69.1407 96.0963 71.6833 98.6388C74.2259 101.181 77.4653 102.913 80.992 103.614C84.5186 104.316 88.174 103.956 91.4961 102.58C94.8181 101.204 97.6575 98.8736 99.6552 95.8838C101.653 92.8941 102.719 89.3791 102.719 85.7834C102.705 80.966 100.785 76.3499 97.3786 72.9435C93.9722 69.5371 89.3562 67.6171 84.5388 67.603ZM84.5388 73.0571C85.6175 73.0571 86.672 73.377 87.5689 73.9763C88.4658 74.5756 89.1649 75.4274 89.5777 76.424C89.9905 77.4207 90.0985 78.5173 89.8881 79.5753C89.6776 80.6333 89.1582 81.6051 88.3954 82.3679C87.6326 83.1307 86.6608 83.6501 85.6028 83.8606C84.5448 84.071 83.4482 83.963 82.4516 83.5502C81.4549 83.1374 80.6031 82.4383 80.0038 81.5414C79.4045 80.6445 79.0847 79.59 79.0847 78.5112C79.0895 77.0662 79.6656 75.6817 80.6874 74.6599C81.7092 73.6381 83.0937 73.062 84.5388 73.0571ZM84.5388 99.3138C82.3842 99.3039 80.2645 98.7686 78.3637 97.7542C76.4628 96.7398 74.8381 95.277 73.6305 93.4926C73.718 89.8565 80.9027 87.8549 84.5388 87.8549C88.1748 87.8549 95.3596 89.8565 95.447 93.4926C94.238 95.2756 92.6131 96.7374 90.7125 97.7517C88.8119 98.7659 86.693 99.3021 84.5388 99.3138Z" fill="#565463" fill-opacity="0.35"/>
<path d="M617.223 200.32C613.627 200.32 610.112 201.386 607.123 203.384C604.133 205.381 601.803 208.221 600.427 211.543C599.051 214.865 598.691 218.52 599.392 222.047C600.094 225.573 601.825 228.813 604.368 231.355C606.91 233.898 610.15 235.63 613.676 236.331C617.203 237.033 620.858 236.672 624.18 235.296C627.502 233.92 630.342 231.59 632.34 228.6C634.337 225.611 635.403 222.096 635.403 218.5C635.389 213.683 633.469 209.067 630.063 205.66C626.657 202.254 622.04 200.334 617.223 200.32ZM617.223 205.774C618.302 205.774 619.356 206.094 620.253 206.693C621.15 207.292 621.849 208.144 622.262 209.141C622.675 210.137 622.783 211.234 622.572 212.292C622.362 213.35 621.842 214.322 621.08 215.084C620.317 215.847 619.345 216.367 618.287 216.577C617.229 216.788 616.132 216.68 615.136 216.267C614.139 215.854 613.287 215.155 612.688 214.258C612.089 213.361 611.769 212.307 611.769 211.228C611.774 209.783 612.35 208.398 613.372 207.377C614.394 206.355 615.778 205.779 617.223 205.774ZM617.223 232.03C615.069 232.021 612.949 231.485 611.048 230.471C609.147 229.456 607.522 227.994 606.315 226.209C606.402 222.573 613.587 220.571 617.223 220.571C620.859 220.571 628.044 222.573 628.131 226.209C626.922 227.992 625.297 229.454 623.397 230.468C621.496 231.483 619.377 232.019 617.223 232.03Z" fill="#565463" fill-opacity="0.35"/>
<path d="M651.766 323.037C648.17 323.037 644.655 324.103 641.665 326.101C638.675 328.099 636.345 330.938 634.969 334.26C633.593 337.582 633.233 341.238 633.935 344.764C634.636 348.291 636.368 351.53 638.91 354.073C641.453 356.615 644.692 358.347 648.219 359.048C651.745 359.75 655.401 359.39 658.723 358.014C662.045 356.638 664.884 354.308 666.882 351.318C668.88 348.328 669.946 344.813 669.946 341.217C669.932 336.4 668.012 331.784 664.605 328.377C661.199 324.971 656.583 323.051 651.766 323.037ZM651.766 328.491C652.844 328.491 653.899 328.811 654.796 329.41C655.693 330.01 656.392 330.861 656.804 331.858C657.217 332.855 657.325 333.951 657.115 335.009C656.904 336.067 656.385 337.039 655.622 337.802C654.859 338.565 653.888 339.084 652.83 339.295C651.772 339.505 650.675 339.397 649.678 338.984C648.682 338.571 647.83 337.872 647.231 336.975C646.631 336.078 646.311 335.024 646.311 333.945C646.316 332.5 646.892 331.116 647.914 330.094C648.936 329.072 650.321 328.496 651.766 328.491ZM651.766 354.748C649.611 354.738 647.491 354.203 645.59 353.188C643.69 352.174 642.065 350.711 640.857 348.927C640.945 345.29 648.13 343.289 651.766 343.289C655.402 343.289 662.586 345.29 662.674 348.927C661.465 350.71 659.84 352.171 657.939 353.186C656.039 354.2 653.92 354.736 651.766 354.748Z" fill="#565463" fill-opacity="0.35"/>
<path d="M246.596 322.734L244.734 330.201C246.845 330.728 253.354 332.875 254.408 328.649C255.507 324.243 248.708 323.26 246.596 322.734Z" fill="#CD9F44"/>
<path d="M243.795 333.97L241.74 342.204C244.276 342.834 252.096 345.345 253.252 340.7C254.46 335.857 246.33 334.603 243.795 333.97Z" fill="#CD9F44"/>
<path d="M255.016 300.504C248.475 298.873 241.598 299.219 235.254 301.496C228.91 303.774 223.384 307.882 219.374 313.3C215.365 318.719 213.052 325.204 212.728 331.937C212.405 338.67 214.085 345.348 217.556 351.126C221.028 356.904 226.135 361.522 232.231 364.398C238.328 367.273 245.14 368.277 251.807 367.28C258.474 366.284 264.695 363.334 269.685 358.802C274.675 354.27 278.208 348.36 279.839 341.82C280.923 337.477 281.141 332.963 280.479 328.536C279.818 324.109 278.292 319.856 275.986 316.019C273.681 312.183 270.643 308.838 267.045 306.176C263.446 303.513 259.359 301.586 255.016 300.504ZM261.799 328.717C261.307 332.038 259.467 333.646 257.023 334.209C260.378 335.955 262.086 338.635 260.459 343.28C258.441 349.047 253.644 349.535 247.267 348.327L245.719 354.531L241.979 353.599L243.506 347.478C242.51 347.232 241.516 346.974 240.525 346.706L238.993 352.854L235.257 351.922L236.805 345.708C235.931 345.484 235.044 345.246 234.139 345.019L229.272 343.805L231.128 339.524C231.128 339.524 233.884 340.258 233.847 340.203C234.018 340.258 234.198 340.279 234.376 340.264C234.555 340.249 234.729 340.198 234.889 340.116C235.048 340.033 235.189 339.92 235.304 339.782C235.42 339.645 235.507 339.486 235.56 339.314L238.006 329.509C238.144 329.543 238.277 329.575 238.401 329.607C238.274 329.557 238.145 329.516 238.013 329.483L239.757 322.482C239.809 321.964 239.656 321.446 239.33 321.039C239.004 320.633 238.532 320.37 238.015 320.308C238.074 320.268 235.298 319.632 235.298 319.632L236.294 315.637L241.452 316.925L241.448 316.944C242.223 317.137 243.022 317.32 243.837 317.505L245.369 311.363L249.107 312.295L247.606 318.317C248.609 318.546 249.619 318.777 250.603 319.022L252.094 313.039L255.834 313.971L254.302 320.116C259.024 321.742 262.477 324.18 261.799 328.717Z" fill="#CD9F44"/>
<path d="M311.805 500.561C311.07 500.595 310.342 500.402 309.72 500.008C309.099 499.615 308.613 499.04 308.329 498.361C308.045 497.682 307.977 496.933 308.133 496.214C308.29 495.495 308.664 494.842 309.204 494.343C309.294 493.983 309.359 493.725 309.45 493.366C309.417 493.287 309.385 493.209 309.352 493.131C308.612 491.383 307.371 489.892 305.785 488.846C304.2 487.8 302.341 487.246 300.442 487.253C298.542 487.26 296.687 487.828 295.11 488.886C293.532 489.943 292.303 491.443 291.575 493.197C288.667 500.197 284.966 507.209 284.054 514.611C283.653 517.882 283.822 521.199 284.555 524.413C277.726 509.521 274.18 493.336 274.157 476.955C274.155 472.844 274.384 468.737 274.841 464.652C275.219 461.303 275.743 457.977 276.414 454.676C280.074 436.763 287.933 419.974 299.345 405.687C304.868 402.674 309.334 398.042 312.143 392.413C313.16 390.39 313.879 388.23 314.277 386.001C313.654 386.083 313.021 386.134 312.398 386.175C312.204 386.185 312 386.195 311.806 386.205L311.732 386.209C311.048 386.239 310.369 386.072 309.777 385.725C309.185 385.379 308.707 384.87 308.398 384.258C308.089 383.646 307.964 382.958 308.038 382.277C308.111 381.596 308.38 380.95 308.812 380.418C309.081 380.087 309.35 379.756 309.62 379.426C310.028 378.915 310.447 378.415 310.856 377.904C310.903 377.856 310.947 377.805 310.988 377.751C311.458 377.169 311.928 376.597 312.398 376.015C311.54 374.685 310.387 373.57 309.027 372.758C304.319 370.002 297.823 371.911 294.421 376.169C291.01 380.426 290.366 386.399 291.551 391.719C292.716 396.245 294.644 400.541 297.251 404.421C296.995 404.747 296.73 405.064 296.474 405.391C291.807 411.391 287.738 417.834 284.328 424.627C285.157 417.016 284.167 409.318 281.439 402.164C278.675 395.497 273.493 389.882 268.93 384.119C263.449 377.196 252.209 380.217 251.244 388.993C251.234 389.078 251.225 389.163 251.216 389.248C251.894 389.63 252.557 390.036 253.207 390.465C254.022 391.01 254.654 391.788 255.019 392.698C255.385 393.608 255.467 394.607 255.255 395.564C255.043 396.521 254.546 397.392 253.831 398.062C253.115 398.733 252.213 399.171 251.244 399.321L251.145 399.336C251.386 401.778 251.813 404.198 252.421 406.575C254.185 413.212 257.3 419.412 261.573 424.789C265.846 430.165 271.183 434.601 277.252 437.819C277.65 438.023 278.038 438.227 278.437 438.421C275.01 448.128 272.861 458.24 272.043 468.501C271.579 474.555 271.607 480.636 272.124 486.685L272.094 486.471C270.786 479.744 267.196 473.674 261.931 469.287C254.11 462.865 243.06 460.5 234.623 455.337C233.726 454.762 232.683 454.455 231.618 454.452C230.552 454.449 229.508 454.752 228.609 455.323C227.709 455.894 226.992 456.71 226.541 457.676C226.091 458.641 225.926 459.715 226.066 460.771C226.077 460.846 226.088 460.921 226.1 460.996C227.358 461.508 228.582 462.098 229.767 462.762C230.445 463.145 231.108 463.55 231.757 463.98C232.573 464.524 233.205 465.302 233.57 466.212C233.936 467.122 234.018 468.121 233.806 469.078C233.593 470.035 233.097 470.906 232.381 471.577C231.666 472.247 230.764 472.686 229.795 472.835L229.695 472.85C229.624 472.861 229.562 472.871 229.491 472.881C231.64 478.011 234.656 482.732 238.408 486.839C243.042 491.809 248.643 495.782 254.868 498.512C261.092 501.242 267.809 502.673 274.606 502.716H274.617C276.462 510.731 279.135 518.533 282.594 525.995H311.091C311.193 525.679 311.285 525.352 311.377 525.035C308.739 525.201 306.091 525.044 303.491 524.566C305.606 521.972 307.72 519.358 309.834 516.765C309.881 516.717 309.926 516.665 309.967 516.612C311.04 515.285 312.122 513.967 313.195 512.64L313.195 512.639C313.252 508.57 312.785 504.511 311.806 500.561L311.805 500.561Z" fill="#7BAD4F"/>
<path d="M561.196 500.561C561.931 500.595 562.658 500.402 563.28 500.008C563.902 499.615 564.387 499.04 564.671 498.361C564.955 497.682 565.023 496.933 564.867 496.214C564.71 495.495 564.337 494.842 563.796 494.343C563.706 493.983 563.641 493.725 563.551 493.366C563.583 493.287 563.615 493.209 563.648 493.131C564.389 491.383 565.63 489.892 567.215 488.846C568.8 487.8 570.659 487.246 572.559 487.253C574.458 487.26 576.313 487.828 577.891 488.886C579.468 489.943 580.698 491.443 581.425 493.197C584.333 500.197 588.035 507.209 588.946 514.611C589.347 517.882 589.178 521.199 588.446 524.413C595.275 509.521 598.821 493.336 598.843 476.955C598.845 472.844 598.616 468.737 598.159 464.652C597.781 461.303 597.257 457.977 596.586 454.676C592.926 436.763 585.067 419.974 573.656 405.687C568.133 402.674 563.666 398.042 560.858 392.413C559.84 390.39 559.121 388.23 558.723 386.001C559.346 386.083 559.979 386.134 560.602 386.175C560.796 386.185 561.001 386.195 561.195 386.205L561.268 386.209C561.953 386.239 562.632 386.072 563.223 385.725C563.815 385.379 564.294 384.87 564.602 384.258C564.911 383.646 565.036 382.958 564.962 382.277C564.889 381.596 564.62 380.95 564.188 380.418C563.919 380.087 563.65 379.756 563.381 379.426C562.972 378.915 562.553 378.415 562.145 377.904C562.097 377.856 562.053 377.805 562.012 377.751C561.542 377.169 561.072 376.597 560.602 376.015C561.46 374.685 562.613 373.57 563.973 372.758C568.682 370.002 575.178 371.911 578.579 376.169C581.99 380.426 582.634 386.399 581.449 391.719C580.284 396.245 578.357 400.541 575.75 404.421C576.005 404.747 576.271 405.064 576.526 405.391C581.194 411.391 585.262 417.834 588.673 424.627C587.843 417.016 588.833 409.318 591.561 402.164C594.325 395.497 599.507 389.882 604.07 384.119C609.552 377.196 620.791 380.217 621.757 388.993C621.766 389.078 621.775 389.163 621.784 389.248C621.106 389.63 620.443 390.036 619.794 390.465C618.978 391.01 618.346 391.788 617.981 392.698C617.615 393.608 617.533 394.607 617.745 395.564C617.958 396.521 618.454 397.392 619.17 398.062C619.885 398.733 620.787 399.171 621.756 399.321L621.856 399.336C621.614 401.778 621.187 404.198 620.579 406.575C618.816 413.212 615.7 419.412 611.427 424.789C607.155 430.165 601.817 434.601 595.749 437.819C595.35 438.023 594.962 438.227 594.564 438.421C597.99 448.128 600.14 458.24 600.958 468.501C601.421 474.555 601.394 480.636 600.876 486.685L600.907 486.471C602.214 479.744 605.804 473.674 611.07 469.287C618.891 462.865 629.94 460.5 638.378 455.337C639.274 454.762 640.317 454.455 641.383 454.452C642.448 454.449 643.492 454.752 644.392 455.323C645.291 455.894 646.009 456.71 646.459 457.676C646.91 458.641 647.075 459.715 646.935 460.771C646.923 460.846 646.912 460.921 646.9 460.996C645.643 461.508 644.418 462.098 643.234 462.762C642.556 463.145 641.892 463.55 641.243 463.98C640.428 464.524 639.796 465.302 639.43 466.212C639.065 467.122 638.983 468.121 639.195 469.078C639.407 470.035 639.903 470.906 640.619 471.577C641.335 472.247 642.236 472.686 643.206 472.835L643.305 472.85C643.377 472.861 643.438 472.871 643.509 472.881C641.36 478.011 638.344 482.732 634.592 486.839C629.958 491.809 624.357 495.782 618.133 498.512C611.908 501.242 605.191 502.673 598.394 502.716H598.384C596.539 510.731 593.865 518.533 590.407 525.995H561.91C561.807 525.679 561.715 525.352 561.624 525.035C564.261 525.201 566.909 525.044 569.509 524.566C567.394 521.972 565.28 519.358 563.166 516.765C563.119 516.717 563.074 516.665 563.033 516.612C561.961 515.285 560.878 513.967 559.806 512.64L559.805 512.639C559.748 508.57 560.216 504.51 561.196 500.561Z" fill="#7BAD4F"/>
<path d="M320.877 510.848L329.208 514.397L346.866 483.965L334.57 478.727L320.877 510.848Z" fill="#BA7659"/>
<path d="M389.72 518.73L398.776 518.729L403.084 483.812L389.719 483.813L389.72 518.73Z" fill="#BA7659"/>
<path d="M389.401 528.173L417.248 528.171V527.819C417.248 524.946 416.106 522.19 414.074 520.158C412.041 518.126 409.284 516.985 406.41 516.985L401.322 513.127L391.832 516.985L389.401 516.985L389.401 528.173Z" fill="#19181F"/>
<path d="M315.812 516.894L341.429 527.807L341.568 527.483C342.694 524.839 342.725 521.857 341.652 519.191C340.579 516.525 338.49 514.394 335.846 513.268L332.679 507.725L322.435 507.555L320.199 506.602L315.812 516.894Z" fill="#19181F"/>
<path d="M398.603 312.08L412.366 395.852L408.62 408.336L413.535 417.177L406.318 494.823L409.248 501.271L401.062 506.317H384.405L383.521 436.024L379.407 425.703V420.016L371.031 377.152L370.137 430.383L367.463 435.539L343.507 498.226H324.83L326.274 487.102C322.928 485.408 331.299 480.458 332.103 476.796L329.353 470.61L332.103 458.926L338.438 426.431L331.965 387.901L334.283 363.102L333.076 354.619L333.168 351.875C333.168 351.875 336.361 350.644 333.312 347.57C329.091 323.651 334.283 318.46 334.283 318.46L355.066 306.301L398.603 312.08Z" fill="#19181F"/>
<path d="M365.088 201.758C375.512 201.758 383.963 193.31 383.963 182.889C383.963 172.468 375.512 164.021 365.088 164.021C354.663 164.021 346.212 172.468 346.212 182.889C346.212 193.31 354.663 201.758 365.088 201.758Z" fill="#BA7659"/>
<path d="M341.423 146.694C341.512 147.776 341.362 148.864 340.985 149.882C340.608 150.9 340.012 151.823 339.24 152.586C338.467 153.348 337.536 153.932 336.514 154.297C335.491 154.661 334.4 154.797 333.319 154.695L322.352 178.695L315.074 167.073L326.604 146.063C326.897 144.26 327.841 142.625 329.258 141.471C330.676 140.316 332.467 139.722 334.294 139.799C336.12 139.877 337.855 140.622 339.169 141.893C340.483 143.163 341.285 144.872 341.423 146.694Z" fill="#BA7659"/>
<path d="M399.841 313.884C399.88 314.167 399.85 314.455 399.754 314.724C399.658 314.993 399.498 315.235 399.288 315.429C399.079 315.623 398.825 315.763 398.55 315.838C398.274 315.913 397.984 315.921 397.705 315.86C387.823 313.725 347.041 318.848 333.534 332.61C333.278 332.873 332.948 333.051 332.587 333.12C332.227 333.188 331.854 333.144 331.519 332.993C331.185 332.842 330.905 332.592 330.718 332.276C330.531 331.961 330.446 331.595 330.475 331.229C330.713 328.271 335.014 314.887 335.014 314.887L336.325 306.547C336.354 306.353 336.354 306.155 336.325 305.961L335.123 299.061C335.058 298.7 334.885 298.368 334.626 298.108L334.219 297.701C333.885 297.366 333.698 296.912 333.698 296.44C333.698 295.967 333.885 295.514 334.219 295.179L335.798 293.61C335.99 293.414 336.135 293.178 336.222 292.918C336.31 292.659 336.338 292.383 336.305 292.111L334.209 276.622C334.199 276.592 334.199 276.553 334.189 276.523L324.932 227.654C324.861 227.268 324.918 226.87 325.096 226.52C325.274 226.17 325.562 225.888 325.916 225.718L341.648 218.202C341.812 218.127 341.962 218.026 342.095 217.904L353.08 207.718C353.407 207.421 353.83 207.252 354.272 207.241L374.017 207.092C374.291 207.092 374.562 207.155 374.808 207.275C375.054 207.396 375.269 207.571 375.437 207.787L381.446 215.601C381.66 215.877 381.95 216.084 382.281 216.197L386.353 217.577L398.112 221.568L398.659 221.757C398.996 221.873 399.291 222.089 399.504 222.376C399.716 222.664 399.837 223.008 399.851 223.365C399.859 223.418 399.862 223.471 399.86 223.524L396.921 284.347C396.912 284.615 396.959 284.882 397.06 285.131L398.47 288.417C398.611 288.751 398.647 289.119 398.574 289.473C398.502 289.828 398.323 290.152 398.063 290.403C397.646 290.8 397.169 291.257 396.871 291.594C396.265 292.26 397.556 297.532 397.755 298.296C397.773 298.361 397.786 298.428 397.795 298.495L398.52 303.946C398.562 304.266 398.516 304.591 398.386 304.887C398.256 305.183 398.049 305.437 397.785 305.624C397.584 305.767 397.415 305.95 397.289 306.162C397.163 306.374 397.083 306.61 397.053 306.854C397.023 307.099 397.044 307.347 397.116 307.583C397.187 307.819 397.307 308.038 397.467 308.225L399.056 310.101C399.273 310.367 399.413 310.686 399.463 311.025L399.841 313.884Z" fill="#FF3D55"/>
<path d="M360.259 200.834C360.178 200.656 360.098 200.478 360.018 200.299C360.048 200.3 360.079 200.305 360.11 200.306L360.259 200.834Z" fill="#19181F"/>
<path d="M427.465 307.677C427.556 306.596 427.41 305.507 427.035 304.488C426.661 303.469 426.067 302.545 425.297 301.78C424.526 301.015 423.597 300.429 422.575 300.062C421.553 299.695 420.463 299.556 419.382 299.656L408.476 275.627L401.168 287.231L412.645 308.27C412.933 310.075 413.873 311.711 415.287 312.869C416.701 314.027 418.491 314.627 420.318 314.554C422.145 314.48 423.881 313.74 425.198 312.473C426.516 311.205 427.322 309.499 427.465 307.677Z" fill="#BA7659"/>
<path d="M412.683 282.45L412.077 283.582L405.691 295.516L404.797 297.184L398.559 288.596L378.089 260.419L380.999 242.746L386.353 220.605L394.288 220.148L399.85 222.422C402.22 223.468 404.163 225.288 405.361 227.583C406.559 229.878 406.942 232.513 406.445 235.054L401.519 260.27L412.683 282.45Z" fill="#FF3D55"/>
<path d="M381.52 165.911C381.238 164.344 380.607 162.86 379.673 161.57C379.202 161.011 378.619 160.557 377.962 160.239C377.304 159.921 376.586 159.745 375.856 159.723C375.126 159.7 374.399 159.832 373.723 160.11C373.047 160.388 372.438 160.805 371.934 161.334C372.229 160.477 372.315 159.561 372.185 158.664C370.806 159.325 369.332 159.763 367.816 159.963L371.165 156.467L354.492 157.998C352.772 158.156 350.911 158.38 349.647 159.687C348.384 160.993 348.314 163.783 349.911 164.511C346.764 163.326 343.15 165.046 341.073 167.927C338.997 170.808 338.232 174.609 338.092 178.296C337.91 183.077 338.802 188.167 341.721 191.686C343.63 193.988 346.233 195.423 348.345 197.494L348.409 197.557C350.722 199.929 353.623 201.647 356.816 202.536C360.008 203.425 363.38 203.454 366.587 202.619C366.947 202.52 367.305 202.41 367.665 202.307C369.461 203.12 371.699 202.009 372.833 200.203C374.043 198.277 374.281 195.812 374.333 193.465C374.4 190.395 374.21 187.325 373.767 184.286C373.267 180.864 372.816 176.482 375.527 174.764C377.638 173.426 380.26 174.746 382.385 176.056C382.589 172.651 382.298 169.233 381.52 165.911Z" fill="#19181F"/>
<path d="M341.272 253.26L328.695 252.352L306.867 225.637L290.665 202.421L294.396 192.983L312.034 167.723L311.852 165.541L313.804 165.189L313.838 162.562L315.458 162.82L319.798 156.605L329.73 164.548L324.113 181.043L323.77 184.405L321.827 187.754L322.777 192.348L319.063 195.872L317.274 201.123C324.99 206.195 332.307 213.784 339.44 223.281L341.272 253.26Z" fill="#FF3D55"/>
<path d="M512.676 282.314L511.312 294.953L512.115 311.528L475.39 307.166L471.938 282.314L476.335 282.356L512.676 282.314Z" fill="#DDAE83"/>
<path d="M480.699 240.773L489.426 235.539L493.61 229.084L506.522 231.07L522.306 241.647L522.151 265.635L512.365 290.515L471.349 285.281L469.791 276.505C469.791 276.505 458.446 261.273 470.664 252.55L480.699 240.773Z" fill="#FF3D55"/>
<path d="M428.322 169.542C427.909 170.424 427.694 171.385 427.692 172.358C427.69 173.332 427.902 174.294 428.313 175.177C428.723 176.06 429.322 176.842 430.068 177.468C430.813 178.094 431.687 178.55 432.628 178.802L461.041 232.393L472.509 223.545L440.974 173.649C441.293 172.041 441.011 170.372 440.182 168.958C439.352 167.545 438.032 166.484 436.473 165.978C434.913 165.472 433.222 165.555 431.72 166.212C430.218 166.869 429.009 168.054 428.322 169.542Z" fill="#DDAE83"/>
<path d="M474.93 250.501C474.93 250.501 472.297 252.836 468.553 246.39C465.555 241.23 450.606 218.124 448.489 210.114C447.328 210.147 446.189 209.793 445.251 209.107C444.314 208.422 443.631 207.444 443.311 206.328L459.369 200.097C462.86 201.842 461.891 204.26 461.006 205.511L466.986 214.478L486.878 236.794L476.863 248.848L474.93 250.501Z" fill="#FF3D55"/>
<path d="M531.725 511.796H523.696L519.874 480.836H531.725V511.796Z" fill="#DDAE83"/>
<path d="M535.963 525.702H530.205L529.177 520.268L526.545 525.702H511.273C510.541 525.702 509.828 525.468 509.238 525.035C508.648 524.601 508.213 523.99 507.995 523.292C507.777 522.593 507.788 521.843 508.027 521.151C508.266 520.46 508.719 519.862 509.322 519.446L521.517 511.027V505.533L534.345 506.298L535.963 525.702Z" fill="#19181F"/>
<path d="M486.623 511.796H478.594L474.772 480.836H486.623V511.796Z" fill="#DDAE83"/>
<path d="M490.861 525.702H485.103L484.075 520.268L481.443 525.702H466.171C465.439 525.702 464.726 525.468 464.136 525.035C463.547 524.601 463.111 523.99 462.893 523.292C462.675 522.593 462.687 521.843 462.925 521.151C463.164 520.46 463.618 519.862 464.22 519.446L476.416 511.027V505.533L489.244 506.298L490.861 525.702Z" fill="#19181F"/>
<path d="M535.189 485.097H535.102L533.558 434.759C534.557 432.832 535.064 430.688 535.034 428.518C535.004 426.348 534.437 424.219 533.385 422.32L533.164 421.92L533.737 419.264C534.473 415.851 534.135 412.295 532.77 409.081L531.329 362.125C536.476 328.783 511.949 307.038 511.949 307.038H475.206L472.581 316.056L469.772 318.441L470.836 322.05L467.786 326.384L467.318 334.13C462.104 384.917 463.05 434.408 471.325 482.356L471.099 482.47C470.671 482.708 470.352 483.102 470.207 483.57C470.062 484.038 470.103 484.544 470.321 484.982C470.703 486.09 471.672 486.76 472.484 486.48L491.888 485.805C492.316 485.567 492.636 485.173 492.781 484.705C492.925 484.237 492.885 483.731 492.666 483.293C492.284 482.185 491.316 481.515 490.503 481.795L489.184 482.462L491.998 433.887L491.685 425.015L492.329 414.949L495.303 369.674L506.561 425.35L518.061 485.658C517.744 485.945 517.521 486.321 517.422 486.737C517.324 487.154 517.353 487.59 517.508 487.989C517.662 488.388 517.934 488.73 518.288 488.971C518.641 489.213 519.059 489.341 519.487 489.34H535.189C535.752 489.34 536.291 489.116 536.689 488.718C537.087 488.321 537.311 487.781 537.311 487.219C537.311 486.656 537.087 486.116 536.689 485.719C536.291 485.321 535.752 485.097 535.189 485.097Z" fill="#19181F"/>
<path d="M575.428 327.75C575.815 326.857 576.002 325.89 575.976 324.917C575.949 323.944 575.709 322.988 575.273 322.118C574.837 321.247 574.215 320.483 573.452 319.879C572.688 319.274 571.801 318.845 570.854 318.62L540.888 265.881L529.683 275.06L562.661 324.015C562.39 325.631 562.72 327.291 563.591 328.68C564.461 330.069 565.811 331.09 567.385 331.551C568.958 332.011 570.646 331.879 572.129 331.178C573.611 330.478 574.785 329.258 575.428 327.75Z" fill="#DDAE83"/>
<path d="M519.807 241.609C519.807 241.609 522.371 239.199 526.301 245.533C529.448 250.603 551.735 279.839 554.085 287.784C555.245 287.717 556.394 288.038 557.351 288.696C558.308 289.354 559.019 290.311 559.372 291.418L543.502 298.114C539.962 296.472 538.313 293.4 539.161 292.124L532.922 283.335L509.528 256.337L517.923 243.318L519.807 241.609Z" fill="#FF3D55"/>
<path d="M638.403 527.458C638.404 527.66 638.364 527.861 638.287 528.049C638.21 528.236 638.096 528.406 637.953 528.55C637.809 528.693 637.639 528.806 637.451 528.884C637.264 528.961 637.063 529.001 636.86 529H227.606C227.197 529 226.805 528.837 226.515 528.548C226.226 528.259 226.063 527.867 226.063 527.458C226.063 527.049 226.226 526.657 226.515 526.367C226.805 526.078 227.197 525.916 227.606 525.916H636.86C637.063 525.915 637.264 525.954 637.451 526.032C637.639 526.109 637.809 526.223 637.953 526.366C638.096 526.509 638.21 526.68 638.287 526.867C638.364 527.054 638.404 527.255 638.403 527.458Z" fill="#1F1E2B"/>
<path d="M487.334 194.271C481.992 204.797 485.482 216.99 495.396 223.402C506.116 230.336 520.035 228.818 524.538 215.344C529.551 200.339 525.433 193.902 516.476 186.212C505.98 177.2 493.107 182.897 487.334 194.271Z" fill="#19181F"/>
<path d="M513.634 217.72C510.914 221.282 506.891 223.619 502.448 224.218C498.006 224.816 493.507 223.628 489.941 220.913C486.374 218.198 484.032 214.18 483.427 209.74C482.823 205.299 484.006 200.801 486.718 197.232L486.864 197.04C489.635 193.573 493.658 191.334 498.066 190.805C502.473 190.277 506.912 191.501 510.424 194.215C513.936 196.928 516.241 200.913 516.841 205.31C517.44 209.707 516.287 214.163 513.629 217.717L513.634 217.72Z" fill="#DDAE83"/>
<path d="M482.157 192.566C484.906 195.181 488.257 197.079 491.913 198.093C492.646 197.245 493.515 196.525 494.485 195.962C494.021 196.928 493.703 197.956 493.541 199.015C495.172 202.398 501.833 204.83 508.199 207.317L516.631 192.441L505.47 186.119C496.502 179.921 485.944 182.567 482.157 192.566Z" fill="#19181F"/>
<path d="M522.992 186.231C523.806 185.931 524.682 185.839 525.541 185.965C526.399 186.09 527.212 186.428 527.907 186.948C529.265 187.981 530.364 189.316 531.115 190.849C532.48 193.328 533.461 196 534.024 198.774C534.505 201.173 534.423 204.074 532.27 205.326C530.473 206.371 527.903 205.713 526.252 204.319C524.721 202.856 523.56 201.05 522.864 199.051C522.18 197.066 521.166 195.211 519.864 193.564L521.352 194.259C520.881 192.831 520.662 191.333 520.704 189.831C520.738 189.083 520.967 188.358 521.368 187.726C521.77 187.094 522.33 186.579 522.992 186.231Z" fill="#19181F"/>
<path d="M503.688 188.18L515.662 194.963C517.265 195.871 518.674 197.086 519.808 198.538C520.941 199.99 521.777 201.651 522.269 203.427C522.76 205.202 522.897 207.057 522.671 208.885C522.445 210.713 521.861 212.479 520.953 214.082C518.28 218.796 513.946 222.344 508.796 224.033C503.646 225.723 498.051 225.432 493.104 223.218L504.045 213.562L489.202 221.122L486.033 219.327C501.952 216.434 505.023 203.951 503.688 188.18Z" fill="#19181F"/>
<path d="M404.899 8.03448L369.069 67.6665L405.021 88.8848L404.899 8.03448Z" fill="#B3B3B3"/>
<path d="M440.886 67.6665L404.899 8.03448L405.021 88.8848L440.886 67.6665Z" fill="#5C5C5C"/>
<path d="M369.069 67.6665L404.977 51.3057L405.021 88.8849L369.069 67.6665Z" fill="#545454"/>
<path d="M440.64 68.315L404.854 51.0696L404.931 89.2328L440.64 68.315Z" fill="#2D2C2C"/>
<path d="M440.798 74.4954L404.933 95.7138V124.981L440.798 74.4954Z" fill="#5C5C5C"/>
<path d="M369.067 74.4954L404.933 95.7138V124.981L369.067 74.4954Z" fill="#B3B3B3"/>
</svg>
